<?xml version="1.0" encoding="UTF-8" standalone="no"?>
<!DOCTYPE svg PUBLIC "-//W3C//DTD SVG 1.1//EN" "http://www.w3.org/Graphics/SVG/1.1/DTD/svg11.dtd">
<svg width="100%" height="100%" viewBox="0 0 640 640" version="1.1" xmlns="http://www.w3.org/2000/svg" xmlns:xlink="http://www.w3.org/1999/xlink" xml:space="preserve" xmlns:serif="http://www.serif.com/" style="fill-rule:evenodd;clip-rule:evenodd;stroke-linecap:round;stroke-linejoin:round;stroke-miterlimit:1.5;">
    <g transform="matrix(1.16667,0,0,0.611111,10.6667,236.444)">
        <rect x="32" y="320" width="96" height="288" style="fill:rgb(0,90,164);stroke:rgb(81,83,164);stroke-width:1.07px;"/>
    </g>
    <g transform="matrix(1.16667,0,0,1,298.667,0)">
        <rect x="32" y="320" width="96" height="288" style="fill:rgb(59,165,163);stroke:rgb(81,83,164);stroke-width:0.92px;"/>
    </g>
    <g transform="matrix(1.16667,0,0,1.11111,154.667,-67.5556)">
        <rect x="32" y="320" width="96" height="288" style="fill:rgb(0,161,226);stroke:rgb(81,83,164);stroke-width:0.88px;"/>
    </g>
    <g transform="matrix(1.16667,0,0,1.38889,442.667,-236.444)">
        <rect x="32" y="320" width="96" height="288" style="fill:rgb(103,105,181);stroke:rgb(81,83,164);stroke-width:0.78px;"/>
    </g>
    <g transform="matrix(1.16667,0,0,1.16667,10.6667,10.6667)">
        <circle cx="80" cy="272" r="48" style="fill:rgb(208,184,106);stroke:rgb(208,184,106);stroke-width:0.86px;"/>
    </g>
    <g transform="matrix(1.16667,0,0,1.16667,154.667,-133.333)">
        <circle cx="80" cy="272" r="48" style="fill:rgb(208,184,106);stroke:rgb(208,184,106);stroke-width:0.86px;"/>
    </g>
    <g transform="matrix(1.16667,0,0,1.16667,298.667,-101.333)">
        <circle cx="80" cy="272" r="48" style="fill:rgb(208,184,106);stroke:rgb(208,184,106);stroke-width:0.86px;"/>
    </g>
    <g transform="matrix(1.16667,0,0,1.16667,442.667,-213.333)">
        <circle cx="80" cy="272" r="48" style="fill:rgb(208,184,106);stroke:rgb(208,184,106);stroke-width:0.86px;"/>
    </g>
    <path d="M104,328L248,184" style="fill:rgb(208,184,106);stroke:rgb(208,184,106);stroke-width:16.67px;"/>
    <path d="M248,184L392,216" style="fill:rgb(208,184,106);stroke:rgb(208,184,106);stroke-width:16.67px;"/>
    <path d="M392,216L536,104" style="fill:rgb(208,184,106);stroke:rgb(208,184,106);stroke-width:16.67px;"/>
</svg>
